<svg width="1400" height="1400" viewBox="0 0 1400 1400" fill="none" xmlns="http://www.w3.org/2000/svg">
<g clip-path="url(#clip0_3_397)">
<path fill-rule="evenodd" clip-rule="evenodd" d="M50.3154 95.4803C43.5202 100.064 41.724 109.283 46.3036 116.073L78.7182 164.13C83.2978 170.919 92.519 172.708 99.3143 168.124L192.153 105.503C198.949 100.92 200.745 91.7001 196.165 84.9107L163.751 36.854C159.171 30.0645 149.95 28.2762 143.155 32.8596L50.3154 95.4803ZM58.0605 110.582C54.9718 112.665 54.1553 116.856 56.2369 119.942L78.8518 153.47C80.9335 156.556 85.1249 157.369 88.2137 155.286L108.907 141.328C111.995 139.245 112.812 135.054 110.73 131.968L88.1154 98.44C86.0338 95.3539 81.8423 94.541 78.7535 96.6243L58.0605 110.582ZM93.7081 94.6677C91.6265 91.5815 92.4429 87.3908 95.5317 85.3073L116.225 71.3497C119.314 69.2663 123.505 70.0792 125.587 73.1654L148.201 106.693C150.283 109.78 149.467 113.97 146.378 116.054L125.685 130.011C122.596 132.095 118.405 131.282 116.323 128.196L93.7081 94.6677ZM133.003 60.0327C129.914 62.1162 129.098 66.3069 131.179 69.393L153.794 102.921C155.876 106.007 160.067 106.82 163.156 104.737L183.849 90.779C186.938 88.6955 187.754 84.5049 185.673 81.4187L163.058 47.8907C160.976 44.8046 156.785 43.9916 153.696 46.0751L133.003 60.0327Z" fill="#161616"/>
<path d="M86.0487 143.738L94.8181 137.823L89.356 113.356L85.5205 107.67L66.3711 120.587L71.1714 127.703L81.0146 121.064L86.0487 143.738Z" fill="#161616"/>
<path d="M122.961 118.84L131.73 112.925L126.268 88.4591L122.432 82.7728L103.283 95.6892L108.083 102.806L117.927 96.1668L122.961 118.84Z" fill="#161616"/>
<path d="M159.873 93.9429L168.642 88.0278L163.18 63.5617L159.344 57.8754L140.195 70.7918L144.995 77.9087L154.838 71.2694L159.873 93.9429Z" fill="#161616"/>
<path d="M196.287 109.219L100.652 173.726L116.859 197.755L212.495 133.248L196.287 109.219Z" fill="#161616"/>
<path fill-rule="evenodd" clip-rule="evenodd" d="M194.001 61.796L215.57 93.7739C218.796 98.5572 217.531 105.053 212.743 108.282L204.354 113.941L210.008 122.323L218.397 116.664C227.818 110.31 230.308 97.5284 223.959 88.1154L202.241 55.9176C201.26 57.4276 199.965 58.77 198.378 59.8406C197.003 60.7678 195.521 61.4155 194.001 61.796Z" fill="#161616"/>
<path d="M196.396 56.2992C201.956 52.549 203.425 45.0057 199.678 39.4506C195.931 33.8955 188.387 32.4323 182.827 36.1824C177.267 39.9325 175.797 47.4759 179.544 53.031C183.291 58.5861 190.836 60.0493 196.396 56.2992Z" fill="#161616"/>
</g>
<g clip-path="url(#clip1_3_397)">
<path fill-rule="evenodd" clip-rule="evenodd" d="M25.249 383.787C18.4537 388.37 16.6576 397.59 21.2372 404.38L53.6518 452.436C58.2313 459.226 67.4526 461.014 74.2479 456.431L167.087 393.81C173.882 389.227 175.678 380.007 171.099 373.217L138.684 325.161C134.105 318.371 124.883 316.583 118.088 321.166L25.249 383.787ZM32.9941 398.889C29.9053 400.972 29.0889 405.163 31.1705 408.249L53.7854 441.777C55.8671 444.863 60.0585 445.676 63.1472 443.592L83.8403 429.635C86.929 427.551 87.7455 423.361 85.6638 420.274L63.049 386.747C60.9673 383.66 56.7759 382.848 53.6871 384.931L32.9941 398.889ZM68.6417 382.974C66.5601 379.888 67.3764 375.697 70.4652 373.614L91.1583 359.656C94.2471 357.573 98.4385 358.386 100.52 361.472L123.135 395C125.217 398.086 124.4 402.277 121.311 404.36L100.618 418.318C97.5296 420.401 93.3382 419.588 91.2565 416.502L68.6417 382.974ZM107.936 348.339C104.848 350.423 104.031 354.613 106.113 357.7L128.728 391.228C130.809 394.314 135.001 395.127 138.09 393.043L158.783 379.086C161.871 377.002 162.688 372.811 160.606 369.725L137.991 336.197C135.91 333.111 131.718 332.298 128.629 334.382L107.936 348.339Z" fill="#161616"/>
<path d="M60.9823 432.044L69.7517 426.129L64.2896 401.663L60.4541 395.977L41.3046 408.893L46.105 416.01L55.9482 409.371L60.9823 432.044Z" fill="#161616"/>
<path d="M97.8942 407.147L106.664 401.232L101.201 376.766L97.366 371.079L78.2165 383.996L83.0169 391.113L92.8601 384.473L97.8942 407.147Z" fill="#161616"/>
<path d="M134.806 382.249L143.575 376.334L138.113 351.868L134.278 346.182L115.128 359.098L119.929 366.215L129.772 359.576L134.806 382.249Z" fill="#161616"/>
<path d="M171.221 397.526L75.5854 462.033L91.7927 486.061L187.428 421.554L171.221 397.526Z" fill="#161616"/>
<path fill-rule="evenodd" clip-rule="evenodd" d="M168.934 350.103L190.503 382.08C193.73 386.864 192.464 393.36 187.677 396.589L179.288 402.247L184.942 410.629L193.331 404.971C202.752 398.616 205.242 385.835 198.893 376.422L177.175 344.224C176.193 345.734 174.898 347.077 173.311 348.147C171.936 349.074 170.455 349.722 168.934 350.103Z" fill="#161616"/>
<path d="M171.329 344.606C176.889 340.856 178.359 333.312 174.612 327.757C170.865 322.202 163.32 320.739 157.76 324.489C152.201 328.239 150.731 335.782 154.478 341.338C158.225 346.893 165.77 348.356 171.329 344.606Z" fill="#161616"/>
</g>
<g clip-path="url(#clip2_3_397)">
<path fill-rule="evenodd" clip-rule="evenodd" d="M353.548 162.346C346.753 166.93 344.956 176.15 349.536 182.939L381.951 230.996C386.53 237.785 395.751 239.574 402.547 234.99L495.386 172.37C502.181 167.786 503.977 158.566 499.398 151.777L466.983 103.72C462.403 96.9306 453.182 95.1424 446.387 99.7257L353.548 162.346ZM361.293 177.448C358.204 179.532 357.388 183.722 359.469 186.808L382.084 220.336C384.166 223.423 388.357 224.235 391.446 222.152L412.139 208.194C415.228 206.111 416.044 201.92 413.963 198.834L391.348 165.306C389.266 162.22 385.075 161.407 381.986 163.491L361.293 177.448ZM396.941 161.534C394.859 158.448 395.675 154.257 398.764 152.174L419.457 138.216C422.546 136.132 426.737 136.945 428.819 140.032L451.434 173.559C453.516 176.646 452.699 180.836 449.61 182.92L428.917 196.877C425.828 198.961 421.637 198.148 419.555 195.062L396.941 161.534ZM436.235 126.899C433.146 128.982 432.33 133.173 434.412 136.259L457.027 169.787C459.108 172.873 463.3 173.686 466.388 171.603L487.082 157.645C490.17 155.562 490.987 151.371 488.905 148.285L466.29 114.757C464.209 111.671 460.017 110.858 456.928 112.941L436.235 126.899Z" fill="#161616"/>
<path d="M389.281 210.604L398.051 204.689L392.588 180.223L388.753 174.536L369.604 187.453L374.404 194.57L384.247 187.93L389.281 210.604Z" fill="#161616"/>
<path d="M426.193 185.706L434.962 179.791L429.5 155.325L425.665 149.639L406.515 162.555L411.316 169.672L421.159 163.033L426.193 185.706Z" fill="#161616"/>
<path d="M463.105 160.809L471.874 154.894L466.412 130.428L462.577 124.742L443.427 137.658L448.228 144.775L458.071 138.136L463.105 160.809Z" fill="#161616"/>
<path d="M499.52 176.086L403.884 240.592L420.092 264.621L515.727 200.114L499.52 176.086Z" fill="#161616"/>
<path fill-rule="evenodd" clip-rule="evenodd" d="M497.233 128.662L518.802 160.64C522.029 165.423 520.763 171.919 515.976 175.149L507.587 180.807L513.24 189.189L521.63 183.531C531.05 177.176 533.541 164.395 527.191 154.982L505.474 122.784C504.492 124.294 503.197 125.636 501.61 126.707C500.235 127.634 498.753 128.282 497.233 128.662Z" fill="#161616"/>
<path d="M499.628 123.165C505.188 119.415 506.658 111.872 502.911 106.317C499.164 100.762 491.619 99.2985 486.059 103.049C480.499 106.799 479.03 114.342 482.777 119.897C486.524 125.452 494.068 126.915 499.628 123.165Z" fill="#161616"/>
</g>
<g clip-path="url(#clip3_3_397)">
<path fill-rule="evenodd" clip-rule="evenodd" d="M-26.3466 689.988C-33.1419 694.571 -34.9381 703.791 -30.3585 710.58L2.05618 758.637C6.63569 765.426 15.857 767.215 22.6523 762.631L115.491 700.011C122.286 695.427 124.083 686.207 119.503 679.418L87.0885 631.361C82.5089 624.572 73.2876 622.783 66.4924 627.367L-26.3466 689.988ZM-18.6016 705.089C-21.6903 707.173 -22.5068 711.363 -20.4251 714.45L2.18973 747.978C4.27143 751.064 8.46285 751.877 11.5516 749.793L32.2446 735.836C35.3334 733.752 36.1499 729.561 34.0682 726.475L11.4533 692.947C9.37171 689.861 5.18022 689.048 2.09147 691.132L-18.6016 705.089ZM17.046 689.175C14.9644 686.089 15.7808 681.898 18.8696 679.815L39.5627 665.857C42.6515 663.774 46.8429 664.587 48.9245 667.673L71.5394 701.201C73.6211 704.287 72.8047 708.477 69.7158 710.561L49.0228 724.519C45.934 726.602 41.7426 725.789 39.6609 722.703L17.046 689.175ZM56.3408 654.54C53.2519 656.623 52.4356 660.814 54.5172 663.9L77.1321 697.428C79.2138 700.515 83.4051 701.327 86.494 699.244L107.187 685.286C110.276 683.203 111.092 679.012 109.011 675.926L86.3957 642.398C84.3141 639.312 80.1227 638.499 77.0338 640.582L56.3408 654.54Z" fill="#161616"/>
<path d="M9.38664 738.245L18.156 732.33L12.6939 707.864L8.85844 702.177L-10.291 715.094L-5.49063 722.211L4.35255 715.571L9.38664 738.245Z" fill="#161616"/>
<path d="M46.2986 713.348L55.0679 707.433L49.6058 682.966L45.7704 677.28L26.6209 690.197L31.4213 697.313L41.2645 690.674L46.2986 713.348Z" fill="#161616"/>
<path d="M83.2105 688.45L91.9798 682.535L86.5177 658.069L82.6823 652.383L63.5328 665.299L68.3332 672.416L78.1764 665.777L83.2105 688.45Z" fill="#161616"/>
<path d="M119.625 703.727L23.9898 768.234L40.1971 792.262L135.832 727.755L119.625 703.727Z" fill="#161616"/>
<path fill-rule="evenodd" clip-rule="evenodd" d="M117.338 656.303L138.908 688.281C142.134 693.065 140.869 699.561 136.081 702.79L127.692 708.448L133.346 716.83L141.735 711.172C151.156 704.817 153.646 692.036 147.297 682.623L125.579 650.425C124.598 651.935 123.303 653.277 121.716 654.348C120.341 655.275 118.859 655.923 117.338 656.303Z" fill="#161616"/>
<path d="M119.734 650.806C125.293 647.056 126.763 639.513 123.016 633.958C119.269 628.403 111.725 626.94 106.165 630.69C100.605 634.44 99.1354 641.983 102.882 647.538C106.629 653.093 114.174 654.557 119.734 650.806Z" fill="#161616"/>
</g>
<g clip-path="url(#clip4_3_397)">
<path fill-rule="evenodd" clip-rule="evenodd" d="M301.952 468.547C295.157 473.131 293.361 482.35 297.94 489.14L330.355 537.197C334.935 543.986 344.156 545.775 350.951 541.191L443.79 478.57C450.585 473.987 452.382 464.767 447.802 457.978L415.387 409.921C410.808 403.131 401.586 401.343 394.791 405.926L301.952 468.547ZM309.697 483.649C306.609 485.732 305.792 489.923 307.874 493.009L330.489 526.537C332.57 529.623 336.762 530.436 339.85 528.353L360.544 514.395C363.632 512.312 364.449 508.121 362.367 505.035L339.752 471.507C337.671 468.421 333.479 467.608 330.39 469.691L309.697 483.649ZM345.345 467.735C343.263 464.648 344.08 460.458 347.168 458.374L367.862 444.417C370.95 442.333 375.142 443.146 377.223 446.232L399.838 479.76C401.92 482.846 401.104 487.037 398.015 489.121L377.322 503.078C374.233 505.162 370.041 504.349 367.96 501.262L345.345 467.735ZM384.64 433.1C381.551 435.183 380.734 439.374 382.816 442.46L405.431 475.988C407.513 479.074 411.704 479.887 414.793 477.804L435.486 463.846C438.575 461.762 439.391 457.572 437.309 454.486L414.695 420.958C412.613 417.872 408.422 417.059 405.333 419.142L384.64 433.1Z" fill="#161616"/>
<path d="M337.686 516.805L346.455 510.89L340.993 486.423L337.157 480.737L318.008 493.654L322.808 500.77L332.651 494.131L337.686 516.805Z" fill="#161616"/>
<path d="M374.597 491.907L383.367 485.992L377.905 461.526L374.069 455.84L354.92 468.756L359.72 475.873L369.563 469.234L374.597 491.907Z" fill="#161616"/>
<path d="M411.509 467.01L420.279 461.095L414.817 436.629L410.981 430.942L391.832 443.859L396.632 450.976L406.475 444.336L411.509 467.01Z" fill="#161616"/>
<path d="M447.924 482.286L352.289 546.793L368.496 570.821L464.131 506.315L447.924 482.286Z" fill="#161616"/>
<path fill-rule="evenodd" clip-rule="evenodd" d="M445.637 434.863L467.207 466.841C470.433 471.624 469.168 478.12 464.38 481.349L455.991 487.008L461.645 495.39L470.034 489.731C479.455 483.377 481.945 470.595 475.596 461.182L453.878 428.985C452.896 430.494 451.602 431.837 450.014 432.907C448.64 433.835 447.158 434.482 445.637 434.863Z" fill="#161616"/>
<path d="M448.033 429.366C453.592 425.616 455.062 418.073 451.315 412.517C447.568 406.962 440.023 405.499 434.464 409.249C428.904 412.999 427.434 420.543 431.181 426.098C434.928 431.653 442.473 433.116 448.033 429.366Z" fill="#161616"/>
</g>
<g clip-path="url(#clip5_3_397)">
<path fill-rule="evenodd" clip-rule="evenodd" d="M630.251 247.107C623.456 251.69 621.66 260.91 626.239 267.7L658.654 315.756C663.233 322.546 672.455 324.334 679.25 319.751L772.089 257.13C778.884 252.547 780.68 243.327 776.101 236.537L743.686 188.481C739.107 181.691 729.885 179.903 723.09 184.486L630.251 247.107ZM637.996 262.208C634.907 264.292 634.091 268.483 636.173 271.569L658.787 305.097C660.869 308.183 665.061 308.996 668.149 306.912L688.842 292.955C691.931 290.871 692.748 286.681 690.666 283.594L668.051 250.067C665.969 246.98 661.778 246.167 658.689 248.251L637.996 262.208ZM673.644 246.294C671.562 243.208 672.379 239.017 675.467 236.934L696.16 222.976C699.249 220.893 703.441 221.706 705.522 224.792L728.137 258.32C730.219 261.406 729.402 265.597 726.314 267.68L705.621 281.638C702.532 283.721 698.34 282.908 696.259 279.822L673.644 246.294ZM712.939 211.659C709.85 213.743 709.033 217.933 711.115 221.02L733.73 254.547C735.812 257.634 740.003 258.447 743.092 256.363L763.785 242.405C766.874 240.322 767.69 236.131 765.608 233.045L742.993 199.517C740.912 196.431 736.72 195.618 733.632 197.702L712.939 211.659Z" fill="#161616"/>
<path d="M665.984 295.364L674.754 289.449L669.292 264.983L665.456 259.297L646.307 272.213L651.107 279.33L660.95 272.691L665.984 295.364Z" fill="#161616"/>
<path d="M702.896 270.467L711.666 264.552L706.204 240.086L702.368 234.399L683.219 247.316L688.019 254.433L697.862 247.793L702.896 270.467Z" fill="#161616"/>
<path d="M739.808 245.569L748.578 239.654L743.115 215.188L739.28 209.502L720.131 222.418L724.931 229.535L734.774 222.896L739.808 245.569Z" fill="#161616"/>
<path d="M776.223 260.846L680.588 325.353L696.795 349.381L792.43 284.874L776.223 260.846Z" fill="#161616"/>
<path fill-rule="evenodd" clip-rule="evenodd" d="M773.936 213.423L795.506 245.4C798.732 250.184 797.466 256.68 792.679 259.909L784.29 265.567L789.944 273.949L798.333 268.291C807.754 261.936 810.244 249.155 803.895 239.742L782.177 207.544C781.195 209.054 779.9 210.396 778.313 211.467C776.939 212.394 775.457 213.042 773.936 213.423Z" fill="#161616"/>
<path d="M776.331 207.926C781.891 204.176 783.361 196.632 779.614 191.077C775.867 185.522 768.322 184.059 762.763 187.809C757.203 191.559 755.733 199.102 759.48 204.657C763.227 210.213 770.772 211.676 776.331 207.926Z" fill="#161616"/>
</g>
<g clip-path="url(#clip6_3_397)">
<path fill-rule="evenodd" clip-rule="evenodd" d="M-51.4131 978.294C-58.2083 982.878 -60.0045 992.097 -55.4249 998.887L-23.0103 1046.94C-18.4307 1053.73 -9.20946 1055.52 -2.41416 1050.94L90.4249 988.317C97.22 983.734 99.0162 974.514 94.4367 967.725L62.0221 919.668C57.4425 912.878 48.2211 911.09 41.426 915.673L-51.4131 978.294ZM-43.668 993.396C-46.7567 995.479 -47.5732 999.67 -45.4916 1002.76L-22.8767 1036.28C-20.795 1039.37 -16.6036 1040.18 -13.5148 1038.1L7.1782 1024.14C10.2669 1022.06 11.0835 1017.87 9.00177 1014.78L-13.6131 981.254C-15.6947 978.168 -19.8862 977.355 -22.975 979.438L-43.668 993.396ZM-8.02039 977.481C-10.102 974.395 -9.28562 970.205 -6.19682 968.121L14.4962 954.164C17.5851 952.08 21.7765 952.893 23.8581 955.979L46.473 989.507C48.5547 992.593 47.7382 996.784 44.6494 998.867L23.9563 1012.83C20.8675 1014.91 16.6762 1014.1 14.5945 1011.01L-8.02039 977.481ZM31.2744 942.847C28.1855 944.93 27.3692 949.121 29.4508 952.207L52.0657 985.735C54.1474 988.821 58.3387 989.634 61.4275 987.55L82.1206 973.593C85.2094 971.509 86.0258 967.319 83.9441 964.232L61.3293 930.705C59.2476 927.618 55.0563 926.805 51.9674 928.889L31.2744 942.847Z" fill="#161616"/>
<path d="M-15.6798 1026.55L-6.91041 1020.64L-12.3725 996.17L-16.208 990.484L-35.3574 1003.4L-30.5571 1010.52L-20.7139 1003.88L-15.6798 1026.55Z" fill="#161616"/>
<path d="M21.2321 1001.65L30.0015 995.739L24.5394 971.273L20.7039 965.587L1.55447 978.503L6.35485 985.62L16.198 978.981L21.2321 1001.65Z" fill="#161616"/>
<path d="M58.144 976.757L66.9134 970.842L61.4513 946.376L57.6158 940.689L38.4664 953.606L43.2668 960.723L53.1099 954.083L58.144 976.757Z" fill="#161616"/>
<path d="M94.5587 992.033L-1.07666 1056.54L15.1307 1080.57L110.766 1016.06L94.5587 992.033Z" fill="#161616"/>
<path fill-rule="evenodd" clip-rule="evenodd" d="M92.272 944.61L113.841 976.588C117.068 981.371 115.802 987.867 111.015 991.096L102.626 996.755L108.28 1005.14L116.669 999.478C126.09 993.124 128.58 980.342 122.23 970.929L100.513 938.731C99.5311 940.241 98.2363 941.584 96.6491 942.654C95.2744 943.582 93.7925 944.229 92.272 944.61Z" fill="#161616"/>
<path d="M94.6672 939.113C100.227 935.363 101.697 927.82 97.9497 922.264C94.2027 916.709 86.6581 915.246 81.0983 918.996C75.5385 922.746 74.0689 930.29 77.8159 935.845C81.5628 941.4 89.1074 942.863 94.6672 939.113Z" fill="#161616"/>
</g>
<g clip-path="url(#clip7_3_397)">
<path fill-rule="evenodd" clip-rule="evenodd" d="M276.886 756.854C270.091 761.437 268.294 770.657 272.874 777.446L305.289 825.503C309.868 832.293 319.089 834.081 325.885 829.498L418.724 766.877C425.519 762.293 427.315 753.074 422.736 746.284L390.321 698.227C385.741 691.438 376.52 689.65 369.725 694.233L276.886 756.854ZM284.631 771.955C281.542 774.039 280.726 778.23 282.807 781.316L305.422 814.844C307.504 817.93 311.695 818.743 314.784 816.659L335.477 802.702C338.566 800.618 339.382 796.428 337.301 793.341L314.686 759.813C312.604 756.727 308.413 755.914 305.324 757.998L284.631 771.955ZM320.278 756.041C318.197 752.955 319.013 748.764 322.102 746.681L342.795 732.723C345.884 730.64 350.075 731.453 352.157 734.539L374.772 768.067C376.854 771.153 376.037 775.344 372.948 777.427L352.255 791.385C349.166 793.468 344.975 792.655 342.893 789.569L320.278 756.041ZM359.573 721.406C356.484 723.49 355.668 727.68 357.75 730.766L380.365 764.294C382.446 767.381 386.638 768.194 389.726 766.11L410.419 752.152C413.508 750.069 414.325 745.878 412.243 742.792L389.628 709.264C387.547 706.178 383.355 705.365 380.266 707.449L359.573 721.406Z" fill="#161616"/>
<path d="M312.619 805.111L321.388 799.196L315.926 774.73L312.091 769.044L292.941 781.96L297.742 789.077L307.585 782.438L312.619 805.111Z" fill="#161616"/>
<path d="M349.531 780.214L358.3 774.299L352.838 749.833L349.003 744.146L329.853 757.063L334.654 764.18L344.497 757.54L349.531 780.214Z" fill="#161616"/>
<path d="M386.443 755.316L395.212 749.401L389.75 724.935L385.915 719.249L366.765 732.165L371.566 739.282L381.409 732.643L386.443 755.316Z" fill="#161616"/>
<path d="M422.858 770.593L327.222 835.1L343.43 859.128L439.065 794.621L422.858 770.593Z" fill="#161616"/>
<path fill-rule="evenodd" clip-rule="evenodd" d="M420.571 723.169L442.14 755.147C445.367 759.931 444.101 766.427 439.314 769.656L430.925 775.314L436.578 783.696L444.967 778.038C454.388 771.683 456.878 758.902 450.529 749.489L428.812 717.291C427.83 718.801 426.535 720.143 424.948 721.214C423.573 722.141 422.091 722.789 420.571 723.169Z" fill="#161616"/>
<path d="M422.966 717.673C428.526 713.923 429.995 706.379 426.249 700.824C422.502 695.269 414.957 693.806 409.397 697.556C403.837 701.306 402.368 708.849 406.115 714.404C409.862 719.96 417.406 721.423 422.966 717.673Z" fill="#161616"/>
</g>
<g clip-path="url(#clip8_3_397)">
<path fill-rule="evenodd" clip-rule="evenodd" d="M605.185 535.413C598.389 539.997 596.593 549.217 601.173 556.006L633.588 604.063C638.167 610.852 647.388 612.641 654.184 608.057L747.023 545.436C753.818 540.853 755.614 531.633 751.034 524.844L718.62 476.787C714.04 469.998 704.819 468.209 698.024 472.793L605.185 535.413ZM612.93 550.515C609.841 552.598 609.025 556.789 611.106 559.875L633.721 593.403C635.803 596.49 639.994 597.302 643.083 595.219L663.776 581.261C666.865 579.178 667.681 574.987 665.6 571.901L642.985 538.373C640.903 535.287 636.712 534.474 633.623 536.557L612.93 550.515ZM648.577 534.601C646.496 531.515 647.312 527.324 650.401 525.24L671.094 511.283C674.183 509.199 678.374 510.012 680.456 513.098L703.071 546.626C705.152 549.713 704.336 553.903 701.247 555.987L680.554 569.944C677.465 572.028 673.274 571.215 671.192 568.129L648.577 534.601ZM687.872 499.966C684.783 502.049 683.967 506.24 686.049 509.326L708.663 542.854C710.745 545.94 714.936 546.753 718.025 544.67L738.718 530.712C741.807 528.629 742.624 524.438 740.542 521.352L717.927 487.824C715.845 484.738 711.654 483.925 708.565 486.008L687.872 499.966Z" fill="#161616"/>
<path d="M640.918 583.671L649.687 577.756L644.225 553.29L640.39 547.603L621.24 560.52L626.041 567.637L635.884 560.997L640.918 583.671Z" fill="#161616"/>
<path d="M677.83 558.773L686.599 552.858L681.137 528.392L677.302 522.706L658.152 535.622L662.953 542.739L672.796 536.1L677.83 558.773Z" fill="#161616"/>
<path d="M714.742 533.876L723.511 527.961L718.049 503.495L714.214 497.808L695.064 510.725L699.865 517.842L709.708 511.202L714.742 533.876Z" fill="#161616"/>
<path d="M751.157 549.152L655.521 613.659L671.728 637.688L767.364 573.181L751.157 549.152Z" fill="#161616"/>
<path fill-rule="evenodd" clip-rule="evenodd" d="M748.87 501.729L770.439 533.707C773.666 538.49 772.4 544.986 767.613 548.216L759.224 553.874L764.877 562.256L773.266 556.598C782.687 550.243 785.177 537.461 778.828 528.049L757.111 495.851C756.129 497.361 754.834 498.703 753.247 499.774C751.872 500.701 750.39 501.349 748.87 501.729Z" fill="#161616"/>
<path d="M751.265 496.232C756.825 492.482 758.294 484.939 754.547 479.384C750.8 473.829 743.256 472.365 737.696 476.116C732.136 479.866 730.667 487.409 734.414 492.964C738.161 498.519 745.705 499.982 751.265 496.232Z" fill="#161616"/>
</g>
<g clip-path="url(#clip9_3_397)">
<path fill-rule="evenodd" clip-rule="evenodd" d="M-103.009 1284.49C-109.804 1289.08 -111.6 1298.3 -107.021 1305.09L-74.6059 1353.14C-70.0264 1359.93 -60.8051 1361.72 -54.0098 1357.14L38.8293 1294.52C45.6244 1289.93 47.4206 1280.71 42.8411 1273.93L10.4265 1225.87C5.84685 1219.08 -3.37448 1217.29 -10.1696 1221.87L-103.009 1284.49ZM-95.2636 1299.6C-98.3524 1301.68 -99.1688 1305.87 -97.0872 1308.96L-74.4723 1342.48C-72.3906 1345.57 -68.1992 1346.38 -65.1105 1344.3L-44.4174 1330.34C-41.3287 1328.26 -40.5122 1324.07 -42.5939 1320.98L-65.2087 1287.45C-67.2904 1284.37 -71.4818 1283.56 -74.5706 1285.64L-95.2636 1299.6ZM-59.616 1283.68C-61.6976 1280.6 -60.8812 1276.41 -57.7924 1274.32L-37.0994 1260.36C-34.0106 1258.28 -29.8192 1259.09 -27.7375 1262.18L-5.12268 1295.71C-3.04098 1298.79 -3.85739 1302.98 -6.94625 1305.07L-27.6393 1319.03C-30.7281 1321.11 -34.9194 1320.3 -37.0011 1317.21L-59.616 1283.68ZM-20.3213 1249.05C-23.4101 1251.13 -24.2265 1255.32 -22.1448 1258.41L0.470037 1291.94C2.55174 1295.02 6.74304 1295.83 9.8319 1293.75L30.5249 1279.79C33.6138 1277.71 34.4302 1273.52 32.3485 1270.43L9.73363 1236.91C7.65201 1233.82 3.46064 1233.01 0.371772 1235.09L-20.3213 1249.05Z" fill="#161616"/>
<path d="M6.5484 1282.96L15.3178 1277.04L9.85568 1252.58L6.0202 1246.89L-13.1293 1259.81L-8.32887 1266.92L1.51431 1260.28L6.5484 1282.96Z" fill="#161616"/>
<path d="M42.9631 1298.23L-52.6723 1362.74L-36.465 1386.77L59.1704 1322.26L42.9631 1298.23Z" fill="#161616"/>
<path fill-rule="evenodd" clip-rule="evenodd" d="M40.6764 1250.81L62.2458 1282.79C65.4722 1287.57 64.2066 1294.07 59.4192 1297.3L51.0302 1302.96L56.6839 1311.34L65.073 1305.68C74.4939 1299.32 76.984 1286.54 70.6348 1277.13L48.9171 1244.93C47.9355 1246.44 46.6407 1247.78 45.0535 1248.86C43.6788 1249.78 42.1969 1250.43 40.6764 1250.81Z" fill="#161616"/>
<path d="M43.0716 1245.31C48.6314 1241.56 50.101 1234.02 46.354 1228.47C42.6071 1222.91 35.0625 1221.45 29.5027 1225.2C23.9429 1228.95 22.4733 1236.49 26.2203 1242.05C29.9672 1247.6 37.5118 1249.06 43.0716 1245.31Z" fill="#161616"/>
</g>
<g clip-path="url(#clip10_3_397)">
<path fill-rule="evenodd" clip-rule="evenodd" d="M225.29 1063.05C218.495 1067.64 216.699 1076.86 221.278 1083.65L253.693 1131.7C258.273 1138.49 267.494 1140.28 274.289 1135.7L367.128 1073.08C373.923 1068.49 375.719 1059.27 371.14 1052.48L338.725 1004.43C334.146 997.639 324.924 995.85 318.129 1000.43L225.29 1063.05ZM233.035 1078.16C229.946 1080.24 229.13 1084.43 231.212 1087.52L253.827 1121.04C255.908 1124.13 260.1 1124.94 263.188 1122.86L283.881 1108.9C286.97 1106.82 287.787 1102.63 285.705 1099.54L263.09 1066.01C261.009 1062.93 256.817 1062.12 253.728 1064.2L233.035 1078.16ZM268.683 1062.24C266.601 1059.16 267.418 1054.96 270.506 1052.88L291.199 1038.92C294.288 1036.84 298.48 1037.65 300.561 1040.74L323.176 1074.27C325.258 1077.35 324.441 1081.54 321.353 1083.63L300.66 1097.59C297.571 1099.67 293.379 1098.86 291.298 1095.77L268.683 1062.24ZM307.978 1027.61C304.889 1029.69 304.072 1033.88 306.154 1036.97L328.769 1070.5C330.851 1073.58 335.042 1074.39 338.131 1072.31L358.824 1058.35C361.913 1056.27 362.729 1052.08 360.647 1048.99L338.033 1015.46C335.951 1012.38 331.76 1011.57 328.671 1013.65L307.978 1027.61Z" fill="#161616"/>
<path d="M261.023 1111.31L269.793 1105.4L264.331 1080.93L260.495 1075.24L241.346 1088.16L246.146 1095.28L255.989 1088.64L261.023 1111.31Z" fill="#161616"/>
<path d="M297.935 1086.41L306.705 1080.5L301.243 1056.03L297.407 1050.35L278.258 1063.26L283.058 1070.38L292.901 1063.74L297.935 1086.41Z" fill="#161616"/>
<path d="M334.847 1061.52L343.617 1055.6L338.155 1031.14L334.319 1025.45L315.17 1038.37L319.97 1045.48L329.813 1038.84L334.847 1061.52Z" fill="#161616"/>
<path d="M371.262 1076.79L275.627 1141.3L291.834 1165.33L387.469 1100.82L371.262 1076.79Z" fill="#161616"/>
<path fill-rule="evenodd" clip-rule="evenodd" d="M368.975 1029.37L390.545 1061.35C393.771 1066.13 392.505 1072.63 387.718 1075.86L379.329 1081.52L384.983 1089.9L393.372 1084.24C402.793 1077.88 405.283 1065.1 398.934 1055.69L377.216 1023.49C376.234 1025 374.94 1026.34 373.352 1027.41C371.978 1028.34 370.496 1028.99 368.975 1029.37Z" fill="#161616"/>
<path d="M371.37 1023.87C376.93 1020.12 378.4 1012.58 374.653 1007.02C370.906 1001.47 363.361 1000.01 357.802 1003.76C352.242 1007.51 350.772 1015.05 354.519 1020.61C358.266 1026.16 365.811 1027.62 371.37 1023.87Z" fill="#161616"/>
</g>
<g clip-path="url(#clip11_3_397)">
<path fill-rule="evenodd" clip-rule="evenodd" d="M553.589 841.614C546.794 846.198 544.998 855.417 549.577 862.207L581.992 910.263C586.571 917.053 595.793 918.841 602.588 914.258L695.427 851.637C702.222 847.054 704.018 837.834 699.439 831.044L667.024 782.988C662.445 776.198 653.223 774.41 646.428 778.993L553.589 841.614ZM561.334 856.716C558.245 858.799 557.429 862.99 559.511 866.076L582.125 899.604C584.207 902.69 588.399 903.503 591.487 901.42L612.18 887.462C615.269 885.379 616.086 881.188 614.004 878.102L591.389 844.574C589.307 841.488 585.116 840.675 582.027 842.758L561.334 856.716ZM596.982 840.801C594.9 837.715 595.716 833.525 598.805 831.441L619.498 817.483C622.587 815.4 626.779 816.213 628.86 819.299L651.475 852.827C653.557 855.913 652.74 860.104 649.652 862.187L628.958 876.145C625.87 878.228 621.678 877.416 619.597 874.329L596.982 840.801ZM636.276 806.166C633.188 808.25 632.371 812.441 634.453 815.527L657.068 849.055C659.149 852.141 663.341 852.954 666.43 850.87L687.123 836.913C690.212 834.829 691.028 830.639 688.946 827.552L666.331 794.025C664.25 790.938 660.058 790.125 656.97 792.209L636.276 806.166Z" fill="#161616"/>
<path d="M589.322 889.871L598.092 883.956L592.63 859.49L588.794 853.804L569.645 866.72L574.445 873.837L584.288 867.198L589.322 889.871Z" fill="#161616"/>
<path d="M626.234 864.974L635.004 859.059L629.542 834.593L625.706 828.907L606.557 841.823L611.357 848.94L621.2 842.301L626.234 864.974Z" fill="#161616"/>
<path d="M663.146 840.077L671.916 834.162L666.453 809.695L662.618 804.009L643.469 816.926L648.269 824.042L658.112 817.403L663.146 840.077Z" fill="#161616"/>
<path d="M699.561 855.353L603.925 919.86L620.133 943.888L715.768 879.381L699.561 855.353Z" fill="#161616"/>
<path fill-rule="evenodd" clip-rule="evenodd" d="M697.274 807.93L718.844 839.908C722.07 844.691 720.804 851.187 716.017 854.416L707.628 860.075L713.282 868.457L721.671 862.798C731.092 856.444 733.582 843.662 727.233 834.249L705.515 802.051C704.533 803.561 703.238 804.904 701.651 805.974C700.277 806.902 698.795 807.549 697.274 807.93Z" fill="#161616"/>
<path d="M699.669 802.433C705.229 798.683 706.699 791.139 702.952 785.584C699.205 780.029 691.66 778.566 686.1 782.316C680.541 786.066 679.071 793.61 682.818 799.165C686.565 804.72 694.11 806.183 699.669 802.433Z" fill="#161616"/>
</g>
<g clip-path="url(#clip12_3_397)">
<path fill-rule="evenodd" clip-rule="evenodd" d="M881.888 620.174C875.093 624.757 873.296 633.977 877.876 640.766L910.291 688.823C914.87 695.613 924.091 697.401 930.887 692.818L1023.73 630.197C1030.52 625.613 1032.32 616.394 1027.74 609.604L995.323 561.547C990.743 554.758 981.522 552.97 974.727 557.553L881.888 620.174ZM889.633 635.275C886.544 637.359 885.728 641.55 887.809 644.636L910.424 678.164C912.506 681.25 916.697 682.063 919.786 679.979L940.479 666.022C943.568 663.938 944.384 659.748 942.303 656.661L919.688 623.133C917.606 620.047 913.415 619.234 910.326 621.318L889.633 635.275ZM925.281 619.361C923.199 616.275 924.015 612.084 927.104 610.001L947.797 596.043C950.886 593.96 955.077 594.773 957.159 597.859L979.774 631.387C981.856 634.473 981.039 638.664 977.95 640.747L957.257 654.705C954.168 656.788 949.977 655.975 947.895 652.889L925.281 619.361ZM964.575 584.726C961.486 586.81 960.67 591 962.752 594.086L985.367 627.614C987.448 630.701 991.64 631.513 994.728 629.43L1015.42 615.472C1018.51 613.389 1019.33 609.198 1017.25 606.112L994.63 572.584C992.549 569.498 988.357 568.685 985.268 570.768L964.575 584.726Z" fill="#161616"/>
<path d="M917.621 668.431L926.391 662.516L920.928 638.05L917.093 632.364L897.943 645.28L902.744 652.397L912.587 645.758L917.621 668.431Z" fill="#161616"/>
<path d="M954.533 643.534L963.302 637.619L957.84 613.152L954.005 607.466L934.855 620.383L939.656 627.499L949.499 620.86L954.533 643.534Z" fill="#161616"/>
<path d="M991.445 618.636L1000.21 612.721L994.752 588.255L990.917 582.569L971.767 595.485L976.568 602.602L986.411 595.963L991.445 618.636Z" fill="#161616"/>
<path d="M1027.86 633.913L932.224 698.42L948.432 722.448L1044.07 657.941L1027.86 633.913Z" fill="#161616"/>
<path fill-rule="evenodd" clip-rule="evenodd" d="M1025.57 586.489L1047.14 618.467C1050.37 623.251 1049.1 629.747 1044.32 632.976L1035.93 638.634L1041.58 647.016L1049.97 641.358C1059.39 635.003 1061.88 622.222 1055.53 612.809L1033.81 580.611C1032.83 582.121 1031.54 583.463 1029.95 584.534C1028.58 585.461 1027.09 586.109 1025.57 586.489Z" fill="#161616"/>
<path d="M1027.97 580.993C1033.53 577.242 1035 569.699 1031.25 564.144C1027.5 558.589 1019.96 557.126 1014.4 560.876C1008.84 564.626 1007.37 572.169 1011.12 577.724C1014.86 583.279 1022.41 584.743 1027.97 580.993Z" fill="#161616"/>
</g>
<g clip-path="url(#clip13_3_397)">
<path fill-rule="evenodd" clip-rule="evenodd" d="M200.224 1351.36C193.428 1355.94 191.632 1365.16 196.212 1371.95L228.627 1420.01C233.206 1426.8 242.427 1428.59 249.223 1424L342.062 1361.38C348.857 1356.8 350.653 1347.58 346.074 1340.79L313.659 1292.73C309.079 1285.95 299.858 1284.16 293.063 1288.74L200.224 1351.36ZM207.969 1366.46C204.88 1368.55 204.064 1372.74 206.145 1375.82L228.76 1409.35C230.842 1412.44 235.033 1413.25 238.122 1411.17L258.815 1397.21C261.904 1395.13 262.72 1390.93 260.639 1387.85L238.024 1354.32C235.942 1351.23 231.751 1350.42 228.662 1352.51L207.969 1366.46ZM243.616 1350.55C241.535 1347.46 242.351 1343.27 245.44 1341.19L266.133 1327.23C269.222 1325.15 273.413 1325.96 275.495 1329.05L298.11 1362.57C300.191 1365.66 299.375 1369.85 296.286 1371.93L275.593 1385.89C272.504 1387.98 268.313 1387.16 266.231 1384.08L243.616 1350.55ZM282.911 1315.91C279.822 1318 279.006 1322.19 281.088 1325.27L303.702 1358.8C305.784 1361.89 309.975 1362.7 313.064 1360.62L333.757 1346.66C336.846 1344.58 337.663 1340.39 335.581 1337.3L312.966 1303.77C310.884 1300.69 306.693 1299.87 303.604 1301.96L282.911 1315.91Z" fill="#161616"/>
<path d="M235.957 1399.62L244.726 1393.7L239.264 1369.24L235.429 1363.55L216.279 1376.47L221.08 1383.58L230.923 1376.94L235.957 1399.62Z" fill="#161616"/>
<path d="M272.869 1374.72L281.638 1368.81L276.176 1344.34L272.341 1338.65L253.191 1351.57L257.992 1358.69L267.835 1352.05L272.869 1374.72Z" fill="#161616"/>
<path d="M309.781 1349.82L318.55 1343.91L313.088 1319.44L309.253 1313.76L290.103 1326.67L294.904 1333.79L304.747 1327.15L309.781 1349.82Z" fill="#161616"/>
<path d="M346.196 1365.1L250.56 1429.61L266.767 1453.64L362.403 1389.13L346.196 1365.1Z" fill="#161616"/>
<path fill-rule="evenodd" clip-rule="evenodd" d="M343.909 1317.68L365.478 1349.65C368.705 1354.44 367.439 1360.93 362.652 1364.16L354.263 1369.82L359.916 1378.2L368.305 1372.55C377.726 1366.19 380.216 1353.41 373.867 1344L352.15 1311.8C351.168 1313.31 349.873 1314.65 348.286 1315.72C346.911 1316.65 345.429 1317.3 343.909 1317.68Z" fill="#161616"/>
<path d="M346.304 1312.18C351.864 1308.43 353.333 1300.89 349.586 1295.33C345.84 1289.78 338.295 1288.31 332.735 1292.06C327.175 1295.81 325.706 1303.36 329.453 1308.91C333.2 1314.47 340.744 1315.93 346.304 1312.18Z" fill="#161616"/>
</g>
<g clip-path="url(#clip14_3_397)">
<path fill-rule="evenodd" clip-rule="evenodd" d="M528.523 1129.92C521.727 1134.5 519.931 1143.72 524.511 1150.51L556.925 1198.57C561.505 1205.36 570.726 1207.15 577.521 1202.56L670.361 1139.94C677.156 1135.36 678.952 1126.14 674.372 1119.35L641.958 1071.29C637.378 1064.5 628.157 1062.72 621.362 1067.3L528.523 1129.92ZM536.268 1145.02C533.179 1147.11 532.362 1151.3 534.444 1154.38L557.059 1187.91C559.141 1191 563.332 1191.81 566.421 1189.73L587.114 1175.77C590.203 1173.69 591.019 1169.49 588.937 1166.41L566.323 1132.88C564.241 1129.79 560.049 1128.98 556.961 1131.06L536.268 1145.02ZM571.915 1129.11C569.834 1126.02 570.65 1121.83 573.739 1119.75L594.432 1105.79C597.521 1103.71 601.712 1104.52 603.794 1107.61L626.409 1141.13C628.49 1144.22 627.674 1148.41 624.585 1150.49L603.892 1164.45C600.803 1166.54 596.612 1165.72 594.53 1162.64L571.915 1129.11ZM611.21 1094.47C608.121 1096.56 607.305 1100.75 609.386 1103.83L632.001 1137.36C634.083 1140.45 638.274 1141.26 641.363 1139.18L662.056 1125.22C665.145 1123.14 665.961 1118.95 663.88 1115.86L641.265 1082.33C639.183 1079.25 634.992 1078.43 631.903 1080.52L611.21 1094.47Z" fill="#161616"/>
<path d="M564.256 1178.18L573.025 1172.26L567.563 1147.8L563.728 1142.11L544.578 1155.03L549.379 1162.14L559.222 1155.5L564.256 1178.18Z" fill="#161616"/>
<path d="M601.168 1153.28L609.937 1147.37L604.475 1122.9L600.64 1117.21L581.49 1130.13L586.29 1137.25L596.134 1130.61L601.168 1153.28Z" fill="#161616"/>
<path d="M638.08 1128.38L646.849 1122.47L641.387 1098L637.551 1092.32L618.402 1105.23L623.202 1112.35L633.046 1105.71L638.08 1128.38Z" fill="#161616"/>
<path d="M674.494 1143.66L578.859 1208.17L595.066 1232.19L690.702 1167.69L674.494 1143.66Z" fill="#161616"/>
<path fill-rule="evenodd" clip-rule="evenodd" d="M672.208 1096.24L693.777 1128.21C697.003 1133 695.738 1139.49 690.951 1142.72L682.561 1148.38L688.215 1156.76L696.604 1151.1C706.025 1144.75 708.515 1131.97 702.166 1122.56L680.448 1090.36C679.467 1091.87 678.172 1093.21 676.585 1094.28C675.21 1095.21 673.728 1095.86 672.208 1096.24Z" fill="#161616"/>
<path d="M674.603 1090.74C680.163 1086.99 681.632 1079.45 677.885 1073.89C674.138 1068.34 666.594 1066.87 661.034 1070.62C655.474 1074.37 654.005 1081.92 657.752 1087.47C661.499 1093.03 669.043 1094.49 674.603 1090.74Z" fill="#161616"/>
</g>
<g clip-path="url(#clip15_3_397)">
<path fill-rule="evenodd" clip-rule="evenodd" d="M856.821 908.48C850.026 913.064 848.23 922.283 852.81 929.073L885.224 977.13C889.804 983.919 899.025 985.708 905.82 981.124L998.659 918.503C1005.45 913.92 1007.25 904.7 1002.67 897.911L970.257 849.854C965.677 843.064 956.456 841.276 949.661 845.86L856.821 908.48ZM864.567 923.582C861.478 925.665 860.661 929.856 862.743 932.942L885.358 966.47C887.44 969.556 891.631 970.369 894.72 968.286L915.413 954.328C918.501 952.245 919.318 948.054 917.236 944.968L894.621 911.44C892.54 908.354 888.348 907.541 885.26 909.624L864.567 923.582ZM900.214 907.668C898.133 904.582 898.949 900.391 902.038 898.307L922.731 884.35C925.82 882.266 930.011 883.079 932.093 886.165L954.707 919.693C956.789 922.78 955.973 926.97 952.884 929.054L932.191 943.011C929.102 945.095 924.911 944.282 922.829 941.196L900.214 907.668ZM939.509 873.033C936.42 875.116 935.604 879.307 937.685 882.393L960.3 915.921C962.382 919.007 966.573 919.82 969.662 917.737L990.355 903.779C993.444 901.695 994.26 897.505 992.179 894.419L969.564 860.891C967.482 857.805 963.291 856.992 960.202 859.075L939.509 873.033Z" fill="#161616"/>
<path d="M892.555 956.738L901.324 950.823L895.862 926.356L892.027 920.67L872.877 933.587L877.677 940.703L887.521 934.064L892.555 956.738Z" fill="#161616"/>
<path d="M929.467 931.84L938.236 925.925L932.774 901.459L928.938 895.773L909.789 908.689L914.589 915.806L924.433 909.167L929.467 931.84Z" fill="#161616"/>
<path d="M966.379 906.943L975.148 901.028L969.686 876.562L965.85 870.875L946.701 883.792L951.501 890.909L961.344 884.269L966.379 906.943Z" fill="#161616"/>
<path d="M1002.79 922.219L907.158 986.726L923.365 1010.75L1019 946.248L1002.79 922.219Z" fill="#161616"/>
<path fill-rule="evenodd" clip-rule="evenodd" d="M1000.51 874.796L1022.08 906.774C1025.3 911.557 1024.04 918.053 1019.25 921.282L1010.86 926.941L1016.51 935.323L1024.9 929.664C1034.32 923.31 1036.81 910.528 1030.47 901.115L1008.75 868.918C1007.77 870.428 1006.47 871.77 1004.88 872.841C1003.51 873.768 1002.03 874.415 1000.51 874.796Z" fill="#161616"/>
<path d="M1002.9 869.299C1008.46 865.549 1009.93 858.006 1006.18 852.451C1002.44 846.895 994.893 845.432 989.333 849.182C983.773 852.933 982.303 860.476 986.05 866.031C989.797 871.586 997.342 873.049 1002.9 869.299Z" fill="#161616"/>
</g>
<g clip-path="url(#clip16_3_397)">
<path fill-rule="evenodd" clip-rule="evenodd" d="M645.369 -34.4894C638.574 -29.9059 636.778 -20.6863 641.357 -13.8967L673.772 34.16C678.351 40.9494 687.573 42.7379 694.368 38.1544L787.207 -24.4663C794.002 -29.0497 795.798 -38.2696 791.219 -45.059L758.804 -93.1157C754.225 -99.9053 745.003 -101.694 738.208 -97.1102L645.369 -34.4894ZM653.114 -19.3878C650.025 -17.3044 649.209 -13.1136 651.291 -10.0274L673.905 23.5005C675.987 26.5867 680.179 27.3995 683.267 25.3161L703.96 11.3585C707.049 9.27513 707.866 5.08444 705.784 1.99819L683.169 -31.5297C681.087 -34.6159 676.896 -35.4288 673.807 -33.3454L653.114 -19.3878ZM688.762 -35.3021C686.68 -38.3882 687.497 -42.579 690.585 -44.6624L711.278 -58.62C714.367 -60.7035 718.559 -59.8905 720.64 -56.8044L743.255 -23.2764C745.337 -20.1902 744.52 -15.9996 741.432 -13.9161L720.738 0.041514C717.65 2.12494 713.458 1.31211 711.377 -1.77414L688.762 -35.3021ZM728.057 -69.937C724.968 -67.8536 724.151 -63.6628 726.233 -60.5767L748.848 -27.0488C750.93 -23.9625 755.121 -23.1497 758.21 -25.2331L778.903 -39.1907C781.992 -41.2742 782.808 -45.4648 780.726 -48.5511L758.111 -82.079C756.03 -85.1651 751.838 -85.9781 748.75 -83.8946L728.057 -69.937Z" fill="#161616"/>
<path d="M681.102 13.7679L689.872 7.85291L684.41 -16.6132L680.574 -22.2996L661.425 -9.3831L666.225 -2.26624L676.068 -8.90555L681.102 13.7679Z" fill="#161616"/>
<path d="M791.341 -20.7504L695.706 43.7565L711.913 67.7849L807.548 3.27796L791.341 -20.7504Z" fill="#161616"/>
</g>
<g clip-path="url(#clip17_3_397)">
<path fill-rule="evenodd" clip-rule="evenodd" d="M922.072 50.2709C915.277 54.8544 913.481 64.0741 918.06 70.8636L950.475 118.92C955.055 125.71 964.276 127.498 971.071 122.915L1063.91 60.294C1070.71 55.7106 1072.5 46.4907 1067.92 39.7013L1035.51 -8.35537C1030.93 -15.1449 1021.71 -16.9332 1014.91 -12.3498L922.072 50.2709ZM929.817 65.3726C926.729 67.456 925.912 71.6468 927.994 74.7329L950.609 108.261C952.69 111.347 956.882 112.16 959.971 110.076L980.664 96.1189C983.752 94.0355 984.569 89.8448 982.487 86.7585L959.872 53.2306C957.791 50.1445 953.599 49.3316 950.51 51.415L929.817 65.3726ZM965.465 49.4583C963.383 46.3721 964.2 42.1814 967.289 40.098L987.982 26.1403C991.07 24.0569 995.262 24.8698 997.343 27.956L1019.96 61.4839C1022.04 64.5701 1021.22 68.7608 1018.13 70.8442L997.442 84.8019C994.353 86.8853 990.162 86.0724 988.08 82.9862L965.465 49.4583ZM1004.76 14.8233C1001.67 16.9068 1000.85 21.0975 1002.94 24.1836L1025.55 57.7116C1027.63 60.7978 1031.82 61.6107 1034.91 59.5272L1055.61 45.5696C1058.69 43.4861 1059.51 39.2955 1057.43 36.2093L1034.81 2.68135C1032.73 -0.404787 1028.54 -1.21777 1025.45 0.865693L1004.76 14.8233Z" fill="#161616"/>
<path d="M957.806 98.5283L966.575 92.6133L961.113 68.1471L957.277 62.4608L938.128 75.3772L942.928 82.4941L952.771 75.8548L957.806 98.5283Z" fill="#161616"/>
<path d="M994.718 73.6309L1003.49 67.7159L998.025 43.2497L994.189 37.5634L975.04 50.4798L979.84 57.5967L989.683 50.9574L994.718 73.6309Z" fill="#161616"/>
<path d="M1031.63 48.7335L1040.4 42.8185L1034.94 18.3523L1031.1 12.666L1011.95 25.5824L1016.75 32.6993L1026.6 26.06L1031.63 48.7335Z" fill="#161616"/>
<path d="M1068.04 64.01L972.409 128.517L988.616 152.545L1084.25 88.0383L1068.04 64.01Z" fill="#161616"/>
<path fill-rule="evenodd" clip-rule="evenodd" d="M1065.76 16.5866L1087.33 48.5645C1090.55 53.3479 1089.29 59.8439 1084.5 63.073L1076.11 68.7315L1081.76 77.1135L1090.15 71.455C1099.57 65.1005 1102.06 52.319 1095.72 42.906L1074 10.7082C1073.02 12.2182 1071.72 13.5606 1070.13 14.6312C1068.76 15.5584 1067.28 16.2061 1065.76 16.5866Z" fill="#161616"/>
<path d="M1068.15 11.0898C1073.71 7.33965 1075.18 -0.203714 1071.44 -5.7588C1067.69 -11.3139 1060.14 -12.7771 1054.58 -9.02698C1049.02 -5.27686 1047.55 2.26651 1051.3 7.8216C1055.05 13.3767 1062.59 14.8399 1068.15 11.0898Z" fill="#161616"/>
</g>
<g clip-path="url(#clip18_3_397)">
<path fill-rule="evenodd" clip-rule="evenodd" d="M897.006 338.577C890.211 343.161 888.414 352.381 892.994 359.17L925.409 407.227C929.988 414.016 939.209 415.805 946.005 411.221L1038.84 348.601C1045.64 344.017 1047.44 334.797 1042.86 328.008L1010.44 279.951C1005.86 273.162 996.64 271.373 989.845 275.957L897.006 338.577ZM904.751 353.679C901.662 355.763 900.846 359.953 902.927 363.039L925.542 396.567C927.624 399.654 931.815 400.466 934.904 398.383L955.597 384.425C958.686 382.342 959.502 378.151 957.421 375.065L934.806 341.537C932.724 338.451 928.533 337.638 925.444 339.722L904.751 353.679ZM940.399 337.765C938.317 334.679 939.133 330.488 942.222 328.405L962.915 314.447C966.004 312.363 970.195 313.176 972.277 316.263L994.892 349.79C996.974 352.877 996.157 357.067 993.068 359.151L972.375 373.108C969.286 375.192 965.095 374.379 963.013 371.293L940.399 337.765ZM979.693 303.13C976.604 305.213 975.788 309.404 977.87 312.49L1000.48 346.018C1002.57 349.104 1006.76 349.917 1009.85 347.834L1030.54 333.876C1033.63 331.793 1034.44 327.602 1032.36 324.516L1009.75 290.988C1007.67 287.902 1003.48 287.089 1000.39 289.172L979.693 303.13Z" fill="#161616"/>
<path d="M932.739 386.835L941.508 380.92L936.046 356.454L932.211 350.767L913.061 363.684L917.862 370.801L927.705 364.161L932.739 386.835Z" fill="#161616"/>
<path d="M969.651 361.937L978.42 356.022L972.958 331.556L969.123 325.87L949.973 338.786L954.774 345.903L964.617 339.264L969.651 361.937Z" fill="#161616"/>
<path d="M1006.56 337.04L1015.33 331.125L1009.87 306.659L1006.03 300.973L986.885 313.889L991.686 321.006L1001.53 314.367L1006.56 337.04Z" fill="#161616"/>
<path d="M1042.98 352.317L947.342 416.823L963.55 440.852L1059.19 376.345L1042.98 352.317Z" fill="#161616"/>
<path fill-rule="evenodd" clip-rule="evenodd" d="M1040.69 304.893L1062.26 336.871C1065.49 341.654 1064.22 348.15 1059.43 351.38L1051.04 357.038L1056.7 365.42L1065.09 359.762C1074.51 353.407 1077 340.626 1070.65 331.213L1048.93 299.015C1047.95 300.525 1046.66 301.867 1045.07 302.938C1043.69 303.865 1042.21 304.513 1040.69 304.893Z" fill="#161616"/>
<path d="M1043.09 299.396C1048.65 295.646 1050.12 288.103 1046.37 282.548C1042.62 276.993 1035.08 275.529 1029.52 279.28C1023.96 283.03 1022.49 290.573 1026.23 296.128C1029.98 301.683 1037.53 303.146 1043.09 299.396Z" fill="#161616"/>
</g>
<g clip-path="url(#clip19_3_397)">
<path fill-rule="evenodd" clip-rule="evenodd" d="M1225.3 117.137C1218.51 121.721 1216.71 130.94 1221.29 137.73L1253.71 185.786C1258.29 192.576 1267.51 194.364 1274.3 189.781L1367.14 127.16C1373.94 122.577 1375.73 113.357 1371.15 106.567L1338.74 58.5108C1334.16 51.7212 1324.94 49.933 1318.14 54.5164L1225.3 117.137ZM1233.05 132.239C1229.96 134.322 1229.14 138.513 1231.23 141.599L1253.84 175.127C1255.92 178.213 1260.11 179.026 1263.2 176.943L1283.9 162.985C1286.98 160.902 1287.8 156.711 1285.72 153.625L1263.1 120.097C1261.02 117.011 1256.83 116.198 1253.74 118.281L1233.05 132.239ZM1268.7 116.324C1266.62 113.238 1267.43 109.048 1270.52 106.964L1291.21 93.0065C1294.3 90.923 1298.49 91.736 1300.58 94.8221L1323.19 128.35C1325.27 131.436 1324.46 135.627 1321.37 137.71L1300.67 151.668C1297.59 153.751 1293.39 152.939 1291.31 149.852L1268.7 116.324ZM1307.99 81.6895C1304.9 83.7729 1304.09 87.9637 1306.17 91.0498L1328.78 124.578C1330.87 127.664 1335.06 128.477 1338.15 126.393L1358.84 112.436C1361.93 110.352 1362.74 106.162 1360.66 103.075L1338.05 69.5475C1335.97 66.4614 1331.77 65.6484 1328.69 67.7319L1307.99 81.6895Z" fill="#161616"/>
<path d="M1261.04 165.394L1269.81 159.479L1264.35 135.013L1260.51 129.327L1241.36 142.243L1246.16 149.36L1256 142.721L1261.04 165.394Z" fill="#161616"/>
<path d="M1297.95 140.497L1306.72 134.582L1301.26 110.116L1297.42 104.43L1278.27 117.346L1283.07 124.463L1292.92 117.824L1297.95 140.497Z" fill="#161616"/>
<path d="M1334.86 115.6L1343.63 109.685L1338.17 85.2185L1334.33 79.5321L1315.18 92.4486L1319.98 99.5655L1329.83 92.9262L1334.86 115.6Z" fill="#161616"/>
<path d="M1371.28 130.876L1275.64 195.383L1291.85 219.411L1387.48 154.904L1371.28 130.876Z" fill="#161616"/>
<path fill-rule="evenodd" clip-rule="evenodd" d="M1368.99 83.4528L1390.56 115.431C1393.79 120.214 1392.52 126.71 1387.73 129.939L1379.34 135.598L1385 143.98L1393.39 138.321C1402.81 131.967 1405.3 119.185 1398.95 109.772L1377.23 77.5744C1376.25 79.0843 1374.95 80.4268 1373.37 81.4973C1371.99 82.4246 1370.51 83.0722 1368.99 83.4528Z" fill="#161616"/>
<path d="M1371.39 77.9559C1376.94 74.2058 1378.41 66.6625 1374.67 61.1074C1370.92 55.5523 1363.38 54.0891 1357.82 57.8392C1352.26 61.5893 1350.79 69.1327 1354.53 74.6878C1358.28 80.2429 1365.83 81.7061 1371.39 77.9559Z" fill="#161616"/>
</g>
<g clip-path="url(#clip20_3_397)">
<path fill-rule="evenodd" clip-rule="evenodd" d="M1173.71 423.338C1166.91 427.921 1165.12 437.141 1169.7 443.931L1202.11 491.987C1206.69 498.777 1215.91 500.565 1222.71 495.982L1315.55 433.361C1322.34 428.778 1324.14 419.558 1319.56 412.768L1287.14 364.712C1282.56 357.922 1273.34 356.134 1266.55 360.717L1173.71 423.338ZM1181.45 438.439C1178.37 440.523 1177.55 444.714 1179.63 447.8L1202.25 481.328C1204.33 484.414 1208.52 485.227 1211.61 483.143L1232.3 469.186C1235.39 467.102 1236.21 462.912 1234.12 459.825L1211.51 426.298C1209.43 423.211 1205.24 422.398 1202.15 424.482L1181.45 438.439ZM1217.1 422.525C1215.02 419.439 1215.84 415.248 1218.93 413.165L1239.62 399.207C1242.71 397.124 1246.9 397.937 1248.98 401.023L1271.6 434.551C1273.68 437.637 1272.86 441.828 1269.77 443.911L1249.08 457.869C1245.99 459.952 1241.8 459.139 1239.72 456.053L1217.1 422.525ZM1256.4 387.89C1253.31 389.974 1252.49 394.164 1254.57 397.251L1277.19 430.778C1279.27 433.865 1283.46 434.678 1286.55 432.594L1307.24 418.637C1310.33 416.553 1311.15 412.362 1309.07 409.276L1286.45 375.748C1284.37 372.662 1280.18 371.849 1277.09 373.933L1256.4 387.89Z" fill="#161616"/>
<path d="M1209.44 471.595L1218.21 465.68L1212.75 441.214L1208.91 435.528L1189.76 448.444L1194.57 455.561L1204.41 448.922L1209.44 471.595Z" fill="#161616"/>
<path d="M1246.35 446.698L1255.12 440.783L1249.66 416.317L1245.83 410.63L1226.68 423.547L1231.48 430.664L1241.32 424.024L1246.35 446.698Z" fill="#161616"/>
<path d="M1283.27 421.8L1292.04 415.885L1286.57 391.419L1282.74 385.733L1263.59 398.649L1268.39 405.766L1278.23 399.127L1283.27 421.8Z" fill="#161616"/>
<path d="M1319.68 437.077L1224.05 501.584L1240.25 525.612L1335.89 461.105L1319.68 437.077Z" fill="#161616"/>
<path fill-rule="evenodd" clip-rule="evenodd" d="M1317.39 389.654L1338.96 421.631C1342.19 426.415 1340.92 432.911 1336.14 436.14L1327.75 441.798L1333.4 450.18L1341.79 444.522C1351.21 438.167 1353.7 425.386 1347.35 415.973L1325.63 383.775C1324.65 385.285 1323.36 386.627 1321.77 387.698C1320.4 388.625 1318.91 389.273 1317.39 389.654Z" fill="#161616"/>
<path d="M1319.79 384.157C1325.35 380.407 1326.82 372.863 1323.07 367.308C1319.32 361.753 1311.78 360.29 1306.22 364.04C1300.66 367.79 1299.19 375.333 1302.94 380.889C1306.68 386.444 1314.23 387.907 1319.79 384.157Z" fill="#161616"/>
</g>
<g clip-path="url(#clip21_3_397)">
<path fill-rule="evenodd" clip-rule="evenodd" d="M1148.64 711.644C1141.85 716.228 1140.05 725.447 1144.63 732.237L1177.05 780.294C1181.63 787.083 1190.85 788.872 1197.64 784.288L1290.48 721.667C1297.28 717.084 1299.07 707.864 1294.49 701.075L1262.08 653.018C1257.5 646.229 1248.28 644.44 1241.48 649.024L1148.64 711.644ZM1156.39 726.746C1153.3 728.829 1152.48 733.02 1154.56 736.106L1177.18 769.634C1179.26 772.721 1183.45 773.533 1186.54 771.45L1207.23 757.492C1210.32 755.409 1211.14 751.218 1209.06 748.132L1186.44 714.604C1184.36 711.518 1180.17 710.705 1177.08 712.788L1156.39 726.746ZM1192.04 710.832C1189.95 707.746 1190.77 703.555 1193.86 701.471L1214.55 687.514C1217.64 685.43 1221.83 686.243 1223.91 689.329L1246.53 722.857C1248.61 725.944 1247.79 730.134 1244.71 732.218L1224.01 746.175C1220.92 748.259 1216.73 747.446 1214.65 744.36L1192.04 710.832ZM1231.33 676.197C1228.24 678.28 1227.42 682.471 1229.51 685.557L1252.12 719.085C1254.2 722.171 1258.39 722.984 1261.48 720.901L1282.18 706.943C1285.27 704.86 1286.08 700.669 1284 697.583L1261.39 664.055C1259.3 660.969 1255.11 660.156 1252.02 662.239L1231.33 676.197Z" fill="#161616"/>
<path d="M1184.38 759.902L1193.15 753.987L1187.68 729.521L1183.85 723.834L1164.7 736.751L1169.5 743.868L1179.34 737.228L1184.38 759.902Z" fill="#161616"/>
<path d="M1221.29 735.004L1230.06 729.089L1224.6 704.623L1220.76 698.937L1201.61 711.853L1206.41 718.97L1216.25 712.331L1221.29 735.004Z" fill="#161616"/>
<path d="M1258.2 710.107L1266.97 704.192L1261.51 679.726L1257.67 674.039L1238.52 686.956L1243.32 694.073L1253.17 687.433L1258.2 710.107Z" fill="#161616"/>
<path d="M1294.61 725.383L1198.98 789.89L1215.19 813.919L1310.82 749.412L1294.61 725.383Z" fill="#161616"/>
<path fill-rule="evenodd" clip-rule="evenodd" d="M1292.33 677.96L1313.9 709.938C1317.12 714.721 1315.86 721.217 1311.07 724.446L1302.68 730.105L1308.34 738.487L1316.72 732.828C1326.15 726.474 1328.64 713.692 1322.29 704.279L1300.57 672.082C1299.59 673.592 1298.29 674.934 1296.7 676.005C1295.33 676.932 1293.85 677.58 1292.33 677.96Z" fill="#161616"/>
<path d="M1294.72 672.463C1300.28 668.713 1301.75 661.17 1298.01 655.615C1294.26 650.06 1286.71 648.596 1281.15 652.346C1275.59 656.097 1274.12 663.64 1277.87 669.195C1281.62 674.75 1289.16 676.213 1294.72 672.463Z" fill="#161616"/>
</g>
<g clip-path="url(#clip22_3_397)">
<path fill-rule="evenodd" clip-rule="evenodd" d="M481.401 1442.75C474.605 1447.34 472.809 1456.56 477.389 1463.35L509.803 1511.4C514.383 1518.19 523.604 1519.98 530.399 1515.4L623.238 1452.78C630.034 1448.19 631.83 1438.97 627.25 1432.18L594.836 1384.13C590.256 1377.34 581.035 1375.55 574.24 1380.13L481.401 1442.75ZM489.146 1457.86C486.057 1459.94 485.24 1464.13 487.322 1467.22L509.937 1500.74C512.019 1503.83 516.21 1504.64 519.299 1502.56L539.992 1488.6C543.081 1486.52 543.897 1482.33 541.815 1479.24L519.2 1445.71C517.119 1442.63 512.927 1441.81 509.839 1443.9L489.146 1457.86ZM524.793 1441.94C522.712 1438.85 523.528 1434.66 526.617 1432.58L547.31 1418.62C550.399 1416.54 554.59 1417.35 556.672 1420.44L579.287 1453.97C581.368 1457.05 580.552 1461.24 577.463 1463.33L556.77 1477.28C553.681 1479.37 549.49 1478.56 547.408 1475.47L524.793 1441.94ZM564.088 1407.31C560.999 1409.39 560.183 1413.58 562.264 1416.67L584.879 1450.19C586.961 1453.28 591.152 1454.09 594.241 1452.01L614.934 1438.05C618.023 1435.97 618.839 1431.78 616.758 1428.69L594.143 1395.16C592.061 1392.08 587.87 1391.27 584.781 1393.35L564.088 1407.31Z" fill="#161616"/>
<path d="M627.481 1403.57C633.041 1399.82 634.51 1392.28 630.763 1386.72C627.016 1381.17 619.472 1379.71 613.912 1383.46C608.352 1387.21 606.883 1394.75 610.629 1400.3C614.376 1405.86 621.921 1407.32 627.481 1403.57Z" fill="#161616"/>
</g>
<g clip-path="url(#clip23_3_397)">
<path fill-rule="evenodd" clip-rule="evenodd" d="M809.699 1221.31C802.904 1225.9 801.108 1235.12 805.688 1241.91L838.102 1289.96C842.682 1296.75 851.903 1298.54 858.698 1293.96L951.537 1231.34C958.333 1226.75 960.129 1217.53 955.549 1210.74L923.135 1162.69C918.555 1155.9 909.334 1154.11 902.538 1158.69L809.699 1221.31ZM817.444 1236.41C814.356 1238.5 813.539 1242.69 815.621 1245.78L838.236 1279.3C840.317 1282.39 844.509 1283.2 847.598 1281.12L868.291 1267.16C871.379 1265.08 872.196 1260.89 870.114 1257.8L847.499 1224.27C845.418 1221.19 841.226 1220.37 838.138 1222.46L817.444 1236.41ZM853.092 1220.5C851.01 1217.41 851.827 1213.22 854.916 1211.14L875.609 1197.18C878.698 1195.1 882.889 1195.91 884.971 1199L907.585 1232.53C909.667 1235.61 908.851 1239.8 905.762 1241.89L885.069 1255.84C881.98 1257.93 877.789 1257.11 875.707 1254.03L853.092 1220.5ZM892.387 1185.87C889.298 1187.95 888.482 1192.14 890.563 1195.23L913.178 1228.75C915.26 1231.84 919.451 1232.65 922.54 1230.57L943.233 1216.61C946.322 1214.53 947.138 1210.34 945.057 1207.25L922.442 1173.72C920.36 1170.64 916.169 1169.82 913.08 1171.91L892.387 1185.87Z" fill="#161616"/>
<path d="M845.433 1269.57L854.202 1263.66L848.74 1239.19L844.904 1233.5L825.755 1246.42L830.555 1253.54L840.399 1246.9L845.433 1269.57Z" fill="#161616"/>
<path d="M882.345 1244.67L891.114 1238.76L885.652 1214.29L881.816 1208.61L862.667 1221.52L867.467 1228.64L877.31 1222L882.345 1244.67Z" fill="#161616"/>
<path d="M919.257 1219.78L928.026 1213.86L922.564 1189.39L918.728 1183.71L899.579 1196.62L904.379 1203.74L914.222 1197.1L919.257 1219.78Z" fill="#161616"/>
<path d="M955.671 1235.05L860.036 1299.56L876.243 1323.59L971.879 1259.08L955.671 1235.05Z" fill="#161616"/>
<path fill-rule="evenodd" clip-rule="evenodd" d="M953.384 1187.63L974.954 1219.61C978.18 1224.39 976.915 1230.89 972.127 1234.12L963.738 1239.77L969.392 1248.16L977.781 1242.5C987.202 1236.14 989.692 1223.36 983.343 1213.95L961.625 1181.75C960.644 1183.26 959.349 1184.6 957.762 1185.67C956.387 1186.6 954.905 1187.25 953.384 1187.63Z" fill="#161616"/>
<path d="M955.78 1182.13C961.34 1178.38 962.809 1170.84 959.062 1165.28C955.315 1159.73 947.771 1158.27 942.211 1162.02C936.651 1165.77 935.181 1173.31 938.928 1178.86C942.675 1184.42 950.22 1185.88 955.78 1182.13Z" fill="#161616"/>
</g>
<g clip-path="url(#clip24_3_397)">
<path fill-rule="evenodd" clip-rule="evenodd" d="M1138 999.873C1131.2 1004.46 1129.41 1013.68 1133.99 1020.47L1166.4 1068.52C1170.98 1075.31 1180.2 1077.1 1187 1072.52L1279.84 1009.9C1286.63 1005.31 1288.43 996.093 1283.85 989.303L1251.43 941.247C1246.85 934.457 1237.63 932.669 1230.84 937.252L1138 999.873ZM1145.74 1014.97C1142.65 1017.06 1141.84 1021.25 1143.92 1024.33L1166.53 1057.86C1168.62 1060.95 1172.81 1061.76 1175.9 1059.68L1196.59 1045.72C1199.68 1043.64 1200.49 1039.45 1198.41 1036.36L1175.8 1002.83C1173.72 999.746 1169.53 998.934 1166.44 1001.02L1145.74 1014.97ZM1181.39 999.06C1179.31 995.974 1180.13 991.783 1183.21 989.7L1203.91 975.742C1207 973.659 1211.19 974.472 1213.27 977.558L1235.88 1011.09C1237.97 1014.17 1237.15 1018.36 1234.06 1020.45L1213.37 1034.4C1210.28 1036.49 1206.09 1035.67 1204.01 1032.59L1181.39 999.06ZM1220.69 964.425C1217.6 966.509 1216.78 970.7 1218.86 973.786L1241.48 1007.31C1243.56 1010.4 1247.75 1011.21 1250.84 1009.13L1271.53 995.172C1274.62 993.088 1275.44 988.898 1273.36 985.811L1250.74 952.283C1248.66 949.197 1244.47 948.384 1241.38 950.468L1220.69 964.425Z" fill="#161616"/>
<path d="M1173.73 1048.13L1182.5 1042.22L1177.04 1017.75L1173.2 1012.06L1154.05 1024.98L1158.85 1032.1L1168.7 1025.46L1173.73 1048.13Z" fill="#161616"/>
<path d="M1210.64 1023.23L1219.41 1017.32L1213.95 992.852L1210.12 987.165L1190.97 1000.08L1195.77 1007.2L1205.61 1000.56L1210.64 1023.23Z" fill="#161616"/>
<path d="M1247.56 998.335L1256.32 992.42L1250.86 967.954L1247.03 962.268L1227.88 975.184L1232.68 982.301L1242.52 975.662L1247.56 998.335Z" fill="#161616"/>
<path d="M1283.97 1013.61L1188.33 1078.12L1204.54 1102.15L1300.18 1037.64L1283.97 1013.61Z" fill="#161616"/>
<path fill-rule="evenodd" clip-rule="evenodd" d="M1281.68 966.189L1303.25 998.167C1306.48 1002.95 1305.21 1009.45 1300.43 1012.68L1292.04 1018.33L1297.69 1026.72L1306.08 1021.06C1315.5 1014.7 1317.99 1001.92 1311.64 992.508L1289.92 960.31C1288.94 961.82 1287.65 963.163 1286.06 964.233C1284.69 965.16 1283.2 965.808 1281.68 966.189Z" fill="#161616"/>
<path d="M1284.08 960.692C1289.64 956.942 1291.11 949.398 1287.36 943.843C1283.61 938.288 1276.07 936.825 1270.51 940.575C1264.95 944.325 1263.48 951.869 1267.23 957.424C1270.97 962.979 1278.52 964.442 1284.08 960.692Z" fill="#161616"/>
</g>
<g clip-path="url(#clip25_3_397)">
<path fill-rule="evenodd" clip-rule="evenodd" d="M1112.93 1288.18C1106.14 1292.76 1104.34 1301.98 1108.92 1308.77L1141.33 1356.83C1145.91 1363.62 1155.14 1365.41 1161.93 1360.82L1254.77 1298.2C1261.56 1293.62 1263.36 1284.4 1258.78 1277.61L1226.37 1229.55C1221.79 1222.76 1212.57 1220.98 1205.77 1225.56L1112.93 1288.18ZM1120.68 1303.28C1117.59 1305.36 1116.77 1309.56 1118.85 1312.64L1141.47 1346.17C1143.55 1349.26 1147.74 1350.07 1150.83 1347.99L1171.52 1334.03C1174.61 1331.94 1175.43 1327.75 1173.35 1324.67L1150.73 1291.14C1148.65 1288.05 1144.46 1287.24 1141.37 1289.32L1120.68 1303.28ZM1156.32 1287.37C1154.24 1284.28 1155.06 1280.09 1158.15 1278.01L1178.84 1264.05C1181.93 1261.97 1186.12 1262.78 1188.2 1265.86L1210.82 1299.39C1212.9 1302.48 1212.08 1306.67 1208.99 1308.75L1188.3 1322.71C1185.21 1324.79 1181.02 1323.98 1178.94 1320.89L1156.32 1287.37ZM1195.62 1252.73C1192.53 1254.82 1191.71 1259.01 1193.8 1262.09L1216.41 1295.62C1218.49 1298.71 1222.68 1299.52 1225.77 1297.44L1246.47 1283.48C1249.55 1281.39 1250.37 1277.2 1248.29 1274.12L1225.67 1240.59C1223.59 1237.5 1219.4 1236.69 1216.31 1238.77L1195.62 1252.73Z" fill="#161616"/>
<path d="M1148.67 1336.44L1157.43 1330.52L1151.97 1306.06L1148.14 1300.37L1128.99 1313.29L1133.79 1320.4L1143.63 1313.76L1148.67 1336.44Z" fill="#161616"/>
<path d="M1185.58 1311.54L1194.35 1305.62L1188.88 1281.16L1185.05 1275.47L1165.9 1288.39L1170.7 1295.51L1180.54 1288.87L1185.58 1311.54Z" fill="#161616"/>
<path d="M1222.49 1286.64L1231.26 1280.73L1225.8 1256.26L1221.96 1250.57L1202.81 1263.49L1207.61 1270.61L1217.45 1263.97L1222.49 1286.64Z" fill="#161616"/>
<path d="M1258.9 1301.92L1163.27 1366.43L1179.48 1390.45L1275.11 1325.95L1258.9 1301.92Z" fill="#161616"/>
<path fill-rule="evenodd" clip-rule="evenodd" d="M1256.62 1254.5L1278.19 1286.47C1281.41 1291.26 1280.15 1297.75 1275.36 1300.98L1266.97 1306.64L1272.62 1315.02L1281.01 1309.36C1290.43 1303.01 1292.92 1290.23 1286.58 1280.81L1264.86 1248.62C1263.88 1250.13 1262.58 1251.47 1260.99 1252.54C1259.62 1253.47 1258.14 1254.11 1256.62 1254.5Z" fill="#161616"/>
<path d="M1259.01 1249C1264.57 1245.25 1266.04 1237.7 1262.29 1232.15C1258.55 1226.59 1251 1225.13 1245.44 1228.88C1239.88 1232.63 1238.41 1240.18 1242.16 1245.73C1245.91 1251.29 1253.45 1252.75 1259.01 1249Z" fill="#161616"/>
</g>
<g clip-path="url(#clip26_3_397)">
<path fill-rule="evenodd" clip-rule="evenodd" d="M1389.64 1372.94C1382.84 1377.52 1381.04 1386.74 1385.62 1393.53L1418.04 1441.59C1422.62 1448.38 1431.84 1450.17 1438.63 1445.58L1531.47 1382.96C1538.27 1378.38 1540.06 1369.16 1535.48 1362.37L1503.07 1314.31C1498.49 1307.52 1489.27 1305.74 1482.47 1310.32L1389.64 1372.94ZM1397.38 1388.04C1394.29 1390.12 1393.47 1394.32 1395.56 1397.4L1418.17 1430.93C1420.25 1434.02 1424.44 1434.83 1427.53 1432.75L1448.23 1418.79C1451.32 1416.7 1452.13 1412.51 1450.05 1409.43L1427.43 1375.9C1425.35 1372.81 1421.16 1372 1418.07 1374.08L1397.38 1388.04ZM1433.03 1372.13C1430.95 1369.04 1431.76 1364.85 1434.85 1362.77L1455.54 1348.81C1458.63 1346.73 1462.82 1347.54 1464.91 1350.62L1487.52 1384.15C1489.6 1387.24 1488.79 1391.43 1485.7 1393.51L1465 1407.47C1461.92 1409.55 1457.72 1408.74 1455.64 1405.66L1433.03 1372.13ZM1472.32 1337.49C1469.23 1339.58 1468.42 1343.77 1470.5 1346.85L1493.11 1380.38C1495.2 1383.47 1499.39 1384.28 1502.48 1382.2L1523.17 1368.24C1526.26 1366.15 1527.07 1361.96 1524.99 1358.88L1502.38 1325.35C1500.3 1322.26 1496.1 1321.45 1493.02 1323.53L1472.32 1337.49Z" fill="#161616"/>
</g>
<g clip-path="url(#clip27_3_397)">
<path fill-rule="evenodd" clip-rule="evenodd" d="M1404.75 1091.34C1397.96 1095.93 1396.16 1105.15 1400.74 1111.94L1433.16 1159.99C1437.74 1166.78 1446.96 1168.57 1453.75 1163.99L1546.59 1101.37C1553.39 1096.78 1555.18 1087.56 1550.6 1080.77L1518.19 1032.72C1513.61 1025.93 1504.39 1024.14 1497.59 1028.72L1404.75 1091.34ZM1412.5 1106.45C1409.41 1108.53 1408.59 1112.72 1410.67 1115.81L1433.29 1149.33C1435.37 1152.42 1439.56 1153.23 1442.65 1151.15L1463.34 1137.19C1466.43 1135.11 1467.25 1130.92 1465.17 1127.83L1442.55 1094.3C1440.47 1091.22 1436.28 1090.4 1433.19 1092.49L1412.5 1106.45ZM1448.15 1090.53C1446.06 1087.44 1446.88 1083.25 1449.97 1081.17L1470.66 1067.21C1473.75 1065.13 1477.94 1065.94 1480.02 1069.03L1502.64 1102.56C1504.72 1105.64 1503.9 1109.83 1500.82 1111.92L1480.12 1125.87C1477.03 1127.96 1472.84 1127.15 1470.76 1124.06L1448.15 1090.53ZM1487.44 1055.9C1484.35 1057.98 1483.54 1062.17 1485.62 1065.26L1508.23 1098.78C1510.31 1101.87 1514.5 1102.68 1517.59 1100.6L1538.29 1086.64C1541.38 1084.56 1542.19 1080.37 1540.11 1077.28L1517.5 1043.75C1515.41 1040.67 1511.22 1039.85 1508.13 1041.94L1487.44 1055.9Z" fill="#161616"/>
</g>
<defs>
<clipPath id="clip0_3_397">
<rect width="170" height="122" fill="white" transform="translate(38.0115 103.779) rotate(-34)"/>
</clipPath>
<clipPath id="clip1_3_397">
<rect width="170" height="122" fill="white" transform="translate(12.945 392.086) rotate(-34)"/>
</clipPath>
<clipPath id="clip2_3_397">
<rect width="170" height="122" fill="white" transform="translate(341.244 170.646) rotate(-34)"/>
</clipPath>
<clipPath id="clip3_3_397">
<rect width="170" height="122" fill="white" transform="translate(-38.6506 698.287) rotate(-34)"/>
</clipPath>
<clipPath id="clip4_3_397">
<rect width="170" height="122" fill="white" transform="translate(289.648 476.846) rotate(-34)"/>
</clipPath>
<clipPath id="clip5_3_397">
<rect width="170" height="122" fill="white" transform="translate(617.947 255.406) rotate(-34)"/>
</clipPath>
<clipPath id="clip6_3_397">
<rect width="170" height="122" fill="white" transform="translate(-63.717 986.593) rotate(-34)"/>
</clipPath>
<clipPath id="clip7_3_397">
<rect width="170" height="122" fill="white" transform="translate(264.582 765.153) rotate(-34)"/>
</clipPath>
<clipPath id="clip8_3_397">
<rect width="170" height="122" fill="white" transform="translate(592.881 543.713) rotate(-34)"/>
</clipPath>
<clipPath id="clip9_3_397">
<rect width="170" height="122" fill="white" transform="translate(-115.313 1292.79) rotate(-34)"/>
</clipPath>
<clipPath id="clip10_3_397">
<rect width="170" height="122" fill="white" transform="translate(212.986 1071.35) rotate(-34)"/>
</clipPath>
<clipPath id="clip11_3_397">
<rect width="170" height="122" fill="white" transform="translate(541.285 849.913) rotate(-34)"/>
</clipPath>
<clipPath id="clip12_3_397">
<rect width="170" height="122" fill="white" transform="translate(869.584 628.473) rotate(-34)"/>
</clipPath>
<clipPath id="clip13_3_397">
<rect width="170" height="122" fill="white" transform="translate(187.92 1359.66) rotate(-34)"/>
</clipPath>
<clipPath id="clip14_3_397">
<rect width="170" height="122" fill="white" transform="translate(516.219 1138.22) rotate(-34)"/>
</clipPath>
<clipPath id="clip15_3_397">
<rect width="170" height="122" fill="white" transform="translate(844.518 916.779) rotate(-34)"/>
</clipPath>
<clipPath id="clip16_3_397">
<rect width="170" height="122" fill="white" transform="translate(633.065 -26.1903) rotate(-34)"/>
</clipPath>
<clipPath id="clip17_3_397">
<rect width="170" height="122" fill="white" transform="translate(909.768 58.5701) rotate(-34)"/>
</clipPath>
<clipPath id="clip18_3_397">
<rect width="170" height="122" fill="white" transform="translate(884.702 346.877) rotate(-34)"/>
</clipPath>
<clipPath id="clip19_3_397">
<rect width="170" height="122" fill="white" transform="translate(1213 125.436) rotate(-34)"/>
</clipPath>
<clipPath id="clip20_3_397">
<rect width="170" height="122" fill="white" transform="translate(1161.41 431.637) rotate(-34)"/>
</clipPath>
<clipPath id="clip21_3_397">
<rect width="170" height="122" fill="white" transform="translate(1136.34 719.943) rotate(-34)"/>
</clipPath>
<clipPath id="clip22_3_397">
<rect width="170" height="122" fill="white" transform="translate(469.097 1451.05) rotate(-34)"/>
</clipPath>
<clipPath id="clip23_3_397">
<rect width="170" height="122" fill="white" transform="translate(797.395 1229.61) rotate(-34)"/>
</clipPath>
<clipPath id="clip24_3_397">
<rect width="170" height="122" fill="white" transform="translate(1125.69 1008.17) rotate(-34)"/>
</clipPath>
<clipPath id="clip25_3_397">
<rect width="170" height="122" fill="white" transform="translate(1100.63 1296.48) rotate(-34)"/>
</clipPath>
<clipPath id="clip26_3_397">
<rect width="170" height="122" fill="white" transform="translate(1377.33 1381.24) rotate(-34)"/>
</clipPath>
<clipPath id="clip27_3_397">
<rect width="170" height="122" fill="white" transform="translate(1392.45 1099.64) rotate(-34)"/>
</clipPath>
</defs>
</svg>
