<svg width="46" height="42" viewBox="0 0 46 42" fill="none" xmlns="http://www.w3.org/2000/svg">
<g filter="url(#filter0_i_3_136)">
<path d="M9.55513 3.71282C10.6269 1.85641 12.6077 0.712814 14.7513 0.712813L31.2487 0.712813C33.3923 0.712813 35.3731 1.85641 36.4449 3.71281L44.6936 18C45.7654 19.8564 45.7654 22.1436 44.6936 24L36.4449 38.2872C35.3731 40.1436 33.3923 41.2872 31.2487 41.2872L14.7513 41.2872C12.6077 41.2872 10.6269 40.1436 9.55514 38.2872L1.30643 24C0.234631 22.1436 0.234628 19.8564 1.30643 18L9.55513 3.71282Z" fill="#393939"/>
</g>
<path d="M10.4212 4.21282C11.3143 2.66581 12.965 1.71281 14.7513 1.71281L31.2487 1.71281C33.035 1.71281 34.6857 2.66581 35.5788 4.21281L43.8275 18.5C44.7207 20.047 44.7207 21.953 43.8276 23.5L35.5788 37.7872C34.6857 39.3342 33.035 40.2872 31.2487 40.2872L14.7513 40.2872C12.965 40.2872 11.3143 39.3342 10.4212 37.7872L2.17245 23.5C1.27929 21.953 1.27929 20.047 2.17245 18.5L10.4212 4.21282Z" stroke="url(#paint0_angular_3_136)" stroke-width="2"/>
<defs>
<filter id="filter0_i_3_136" x="0.502563" y="0.712812" width="44.9949" height="40.5744" filterUnits="userSpaceOnUse" color-interpolation-filters="sRGB">
<feFlood flood-opacity="0" result="BackgroundImageFix"/>
<feBlend mode="normal" in="SourceGraphic" in2="BackgroundImageFix" result="shape"/>
<feColorMatrix in="SourceAlpha" type="matrix" values="0 0 0 0 0 0 0 0 0 0 0 0 0 0 0 0 0 0 127 0" result="hardAlpha"/>
<feOffset/>
<feGaussianBlur stdDeviation="7.5"/>
<feComposite in2="hardAlpha" operator="arithmetic" k2="-1" k3="1"/>
<feColorMatrix type="matrix" values="0 0 0 0 0 0 0 0 0 0 0 0 0 0 0 0 0 0 0.25 0"/>
<feBlend mode="normal" in2="shape" result="effect1_innerShadow_3_136"/>
</filter>
<radialGradient id="paint0_angular_3_136" cx="0" cy="0" r="1" gradientUnits="userSpaceOnUse" gradientTransform="translate(23 21) rotate(40.8545) scale(27.9441 28.788)">
<stop stop-color="#FB37FF"/>
<stop offset="0.166667" stop-color="#58C4F6"/>
<stop offset="0.333333" stop-color="#2AD0CA"/>
<stop offset="0.505208" stop-color="#ABB3FC"/>
<stop offset="0.671875" stop-color="#E1F664"/>
<stop offset="0.838542" stop-color="#EFB0FE"/>
<stop offset="1" stop-color="#FB37FF"/>
</radialGradient>
</defs>
</svg>
