<svg width="28" height="28" viewBox="0 0 28 28" fill="none" xmlns="http://www.w3.org/2000/svg">
<path d="M27.625 13.8125C27.6215 10.1503 26.1651 6.63906 23.5755 4.04947C20.9859 1.45989 17.4747 0.0035163 13.8125 0C10.1492 0 6.63593 1.45524 4.04559 4.04559C1.45524 6.63593 0 10.1492 0 13.8125C0 17.4758 1.45524 20.9891 4.04559 23.5794C6.63593 26.1698 10.1492 27.625 13.8125 27.625C17.4747 27.6215 20.9859 26.1651 23.5755 23.5755C26.1651 20.9859 27.6215 17.4747 27.625 13.8125ZM25.4469 12.75H20.1609C19.9484 8.81875 18.5672 5.17969 16.243 2.37734C18.6816 2.90119 20.8893 4.18974 22.5447 6.0554C24.2002 7.92105 25.2169 10.2664 25.4469 12.75ZM9.60234 14.875H18.0227C17.7836 18.7 16.2563 22.2727 13.8125 24.7562C11.3687 22.2727 9.84141 18.7 9.60234 14.875ZM9.60234 12.75C9.84141 8.925 11.3687 5.35234 13.8125 2.86875C16.2563 5.35234 17.7836 8.925 18.0227 12.75H9.60234ZM11.382 2.37734C9.05781 5.17969 7.67656 8.81875 7.46406 12.75H2.17813C2.40811 10.2664 3.42484 7.92105 5.08028 6.0554C6.73572 4.18974 8.94344 2.90119 11.382 2.37734ZM2.17813 14.875H7.46406C7.67656 18.8062 9.05781 22.4453 11.382 25.2477C8.94344 24.7238 6.73572 23.4353 5.08028 21.5696C3.42484 19.7039 2.40811 17.3586 2.17813 14.875ZM16.243 25.2477C18.5672 22.4453 19.9484 18.8062 20.1609 14.875H25.4469C25.2169 17.3586 24.2002 19.7039 22.5447 21.5696C20.8893 23.4353 18.6816 24.7238 16.243 25.2477Z" fill="url(#paint0_linear_3_19)"/>
<defs>
<linearGradient id="paint0_linear_3_19" x1="3.3125" y1="-0.1875" x2="22.8125" y2="25.8125" gradientUnits="userSpaceOnUse">
<stop stop-color="#167EFF"/>
<stop offset="1" stop-color="#22DFFA"/>
</linearGradient>
</defs>
</svg>
