<svg width="30" height="26" viewBox="0 0 30 26" fill="none" xmlns="http://www.w3.org/2000/svg">
<path d="M27.75 10.1667V22.9167C27.75 23.6681 27.4515 24.3888 26.9201 24.9201C26.3888 25.4515 25.6681 25.75 24.9167 25.75H5.08334C4.3319 25.75 3.61123 25.4515 3.07987 24.9201C2.54852 24.3888 2.25001 23.6681 2.25001 22.9167V10.1667H27.75ZM17.8333 14.4167H12.1667C11.791 14.4167 11.4306 14.5659 11.1649 14.8316C10.8993 15.0973 10.75 15.4576 10.75 15.8333C10.75 16.2091 10.8993 16.5694 11.1649 16.8351C11.4306 17.1007 11.791 17.25 12.1667 17.25H17.8333C18.2091 17.25 18.5694 17.1007 18.8351 16.8351C19.1008 16.5694 19.25 16.2091 19.25 15.8333C19.25 15.4576 19.1008 15.0973 18.8351 14.8316C18.5694 14.5659 18.2091 14.4167 17.8333 14.4167ZM26.3333 0.25C27.0848 0.25 27.8055 0.548511 28.3368 1.07986C28.8682 1.61122 29.1667 2.33189 29.1667 3.08333V7.33333H0.833344V3.08333C0.833344 2.33189 1.13185 1.61122 1.66321 1.07986C2.19456 0.548511 2.91523 0.25 3.66668 0.25H26.3333Z" fill="url(#paint0_linear_3_33)"/>
<defs>
<linearGradient id="paint0_linear_3_33" x1="0.999999" y1="8.98394e-07" x2="27" y2="26" gradientUnits="userSpaceOnUse">
<stop stop-color="#167EFF"/>
<stop offset="1" stop-color="#22E2FA"/>
</linearGradient>
</defs>
</svg>
