<svg width="50" height="50" viewBox="0 0 50 50" fill="none" xmlns="http://www.w3.org/2000/svg">
<path d="M46.7918 12.5C45.1877 13.2292 43.4585 13.7083 41.6668 13.9375C43.5002 12.8333 44.9168 11.0833 45.5835 8.97918C43.8543 10.0208 41.9377 10.75 39.9168 11.1667C38.271 9.37501 35.9585 8.33334 33.3335 8.33334C28.4377 8.33334 24.4377 12.3333 24.4377 17.2708C24.4377 17.9792 24.521 18.6667 24.6668 19.3125C17.2502 18.9375 10.646 15.375 6.25016 9.97918C5.47933 11.2917 5.04183 12.8333 5.04183 14.4583C5.04183 17.5625 6.60433 20.3125 9.021 21.875C7.54183 21.875 6.16683 21.4583 4.9585 20.8333V20.8958C4.9585 25.2292 8.04183 28.8542 12.1252 29.6667C10.8142 30.0254 9.43786 30.0754 8.10433 29.8125C8.67018 31.5885 9.77837 33.1425 11.2731 34.2561C12.7679 35.3697 14.574 35.9869 16.4377 36.0208C13.2786 38.5218 9.36266 39.8736 5.3335 39.8542C4.62516 39.8542 3.91683 39.8125 3.2085 39.7292C7.16683 42.2708 11.8752 43.75 16.9168 43.75C33.3335 43.75 42.3543 30.125 42.3543 18.3125C42.3543 17.9167 42.3543 17.5417 42.3335 17.1458C44.0835 15.8958 45.5835 14.3125 46.7918 12.5Z" fill="#148EFF"/>
</svg>
