<svg width="34" height="26" viewBox="0 0 34 26" fill="none" xmlns="http://www.w3.org/2000/svg">
<path d="M23.8 22.5333V26H0V22.5333C0 22.5333 0 15.6 11.9 15.6C23.8 15.6 23.8 22.5333 23.8 22.5333ZM17.85 6.06674C17.85 4.86687 17.501 3.69394 16.8472 2.69629C16.1935 1.69863 15.2642 0.921057 14.177 0.461887C13.0897 0.00271727 11.8934 -0.117423 10.7392 0.11666C9.58502 0.350743 8.52484 0.928535 7.69272 1.77697C6.86059 2.62541 6.29391 3.70638 6.06433 4.88319C5.83475 6.06001 5.95258 7.27981 6.40292 8.38834C6.85326 9.49687 7.61589 10.4444 8.59436 11.111C9.57283 11.7776 10.7232 12.1334 11.9 12.1334C13.478 12.1334 14.9914 11.4942 16.1073 10.3565C17.2231 9.21879 17.85 7.67571 17.85 6.06674ZM23.698 15.6C24.7431 16.4247 25.5982 17.4728 26.2032 18.6706C26.8083 19.8685 27.1485 21.187 27.2 22.5333V26H34V22.5333C34 22.5333 34 16.2414 23.698 15.6ZM22.1 9.11366e-05C20.9299 -0.00655221 19.7855 0.350146 18.819 1.02275C19.8517 2.49389 20.4069 4.25764 20.4069 6.06674C20.4069 7.87583 19.8517 9.63958 18.819 11.1107C19.7855 11.7833 20.9299 12.14 22.1 12.1334C23.678 12.1334 25.1914 11.4942 26.3073 10.3565C27.4231 9.21879 28.05 7.67571 28.05 6.06674C28.05 4.45776 27.4231 2.91469 26.3073 1.77697C25.1914 0.639254 23.678 9.11366e-05 22.1 9.11366e-05Z" fill="url(#paint0_linear_3_17)"/>
<defs>
<linearGradient id="paint0_linear_3_17" x1="2" y1="0.5" x2="30" y2="26" gradientUnits="userSpaceOnUse">
<stop stop-color="#E65C00"/>
<stop offset="1" stop-color="#F9D423"/>
</linearGradient>
</defs>
</svg>
